<?xml version="1.0" encoding="utf-8"?>
<!-- Generator: Adobe Illustrator 19.0.0, SVG Export Plug-In . SVG Version: 6.00 Build 0)  -->
<svg version="1.1" id="Layer_1" xmlns="http://www.w3.org/2000/svg" xmlns:xlink="http://www.w3.org/1999/xlink" x="0px" y="0px"
	 width="1400px" height="980px" viewBox="0 0 1400 980" enable-background="new 0 0 1400 980" xml:space="preserve">
<g id="XMLID_78_">
	<g id="XMLID_77_">
		<g id="XMLID_3_">
			<path id="XMLID_179_" fill="#404041" d="M104.9,245.5c-0.2,1.7-1.4,5.2-6.7,10.9c-2.4,2.5-2.8,6.2-1,9.2c1.4,2.3,3.8,3.6,6.3,3.6
				c0.7,0,1.4-0.1,2.1-0.3c10.3-2.8,17.6-8,21.4-15.2c4.1,0.8,8.3,1.3,12.6,1.5c9.5,6.5,21.8,10.1,34.7,10.1c4.3,0,8.5-0.4,12.6-1.2
				c3.5,6.2,10.1,10.6,19.4,12.9c0.5,0.1,1.1,0.2,1.6,0.2c2.5,0,4.8-1.4,6-3.7c1.4-2.8,0.8-6.2-1.6-8.2c-3.8-3.2-5-6.6-5.4-8.7
				c12.3-7.4,19.3-18.5,19.3-30.8c0-14.7-10.4-27.9-27.2-34.8c-9.3-16.7-31.1-28.4-56.4-28.4c-33.7,0-61.2,20.8-61.2,46.4
				C81.3,223.3,90.1,236.8,104.9,245.5z M203.3,203.9c8.4,5.6,13.3,13.5,13.3,21.9c0,9.6-6.1,18.3-16.9,24c-0.1,0-0.1,0.1-0.2,0.1
				c-0.2,0.1-0.4,0.2-0.5,0.3c-0.1,0.1-0.2,0.2-0.3,0.3c-0.1,0.1-0.2,0.2-0.4,0.4c-0.1,0.1-0.2,0.2-0.3,0.3
				c-0.1,0.1-0.2,0.3-0.3,0.4c-0.1,0.1-0.1,0.3-0.2,0.4c-0.1,0.1-0.1,0.3-0.2,0.4c-0.1,0.2-0.1,0.4-0.1,0.5c0,0.1-0.1,0.2-0.1,0.3
				c0,0,0,0.1,0,0.1c0,0,0,0,0,0c-0.1,0.8-0.4,5.4,2.2,10.7c-2.5-1.7-4.5-3.9-5.5-6.9c0-0.1-0.1-0.2-0.1-0.3
				c-0.1-0.2-0.1-0.3-0.2-0.4c-0.1-0.1-0.2-0.3-0.2-0.4c-0.1-0.1-0.2-0.3-0.3-0.4c-0.1-0.1-0.2-0.2-0.3-0.3
				c-0.1-0.1-0.2-0.2-0.3-0.3c-0.1-0.1-0.3-0.2-0.4-0.3c-0.1-0.1-0.2-0.2-0.4-0.2c-0.1-0.1-0.3-0.1-0.4-0.2
				c-0.1-0.1-0.3-0.1-0.4-0.2c-0.2-0.1-0.3-0.1-0.5-0.1c-0.1,0-0.3-0.1-0.4-0.1c-0.2,0-0.3,0-0.5,0c-0.1,0-0.3,0-0.4,0
				c-0.2,0-0.3,0-0.5,0.1c-0.1,0-0.2,0-0.3,0c-4.5,1.2-9.3,1.7-14.2,1.7c-5.5,0-10.9-0.8-15.8-2.2c26.1-5.3,45.3-23.4,45.3-44.8
				C203.7,207.2,203.5,205.5,203.3,203.9z M142.5,172c22.5,0,41.7,10.3,48.8,24.7c0,0,0,0,0,0c1.9,3.8,2.9,7.9,2.9,12.2
				c0,20.4-23.2,36.9-51.8,36.9c-5.9,0-11.7-0.7-17.2-2.1c-0.1,0-0.2,0-0.3,0c-0.2,0-0.3-0.1-0.5-0.1c-0.1,0-0.3,0-0.4,0
				c-0.2,0-0.3,0-0.5,0c-0.1,0-0.3,0-0.4,0.1c-0.2,0-0.3,0.1-0.5,0.1c-0.1,0-0.2,0.1-0.4,0.1c-0.2,0.1-0.3,0.1-0.5,0.2
				c-0.1,0.1-0.2,0.1-0.3,0.2c-0.1,0.1-0.3,0.2-0.4,0.3c-0.1,0.1-0.2,0.2-0.3,0.3c-0.1,0.1-0.2,0.2-0.3,0.4
				c-0.1,0.1-0.2,0.2-0.2,0.3c-0.1,0.1-0.2,0.3-0.3,0.4c-0.1,0.1-0.1,0.3-0.2,0.4c0,0.1-0.1,0.2-0.1,0.3c-1.5,4.5-4.9,8-10.1,10.6
				c6.9-9.7,4.6-15.6,3.8-17l0,0c0,0,0-0.1-0.1-0.1c-0.1-0.1-0.1-0.2-0.2-0.3c-0.1-0.1-0.2-0.3-0.3-0.4c-0.1-0.1-0.2-0.2-0.3-0.4
				c-0.1-0.1-0.2-0.2-0.3-0.3c-0.2-0.1-0.3-0.2-0.5-0.3c-0.1,0-0.1-0.1-0.2-0.1c-13-7-20.7-18-20.7-29.5
				C90.7,188.5,113.9,172,142.5,172z"/>
			<path id="XMLID_11_" fill="#404041" d="M119,199.5h47c2.6,0,4.7-2.1,4.7-4.7c0-2.6-2.1-4.7-4.7-4.7h-47c-2.6,0-4.7,2.1-4.7,4.7
				C114.3,197.3,116.4,199.5,119,199.5z"/>
			<path id="XMLID_14_" fill="#404041" d="M119,227.8h47c2.6,0,4.7-2.1,4.7-4.7c0-2.6-2.1-4.7-4.7-4.7h-47c-2.6,0-4.7,2.1-4.7,4.7
				C114.3,225.7,116.4,227.8,119,227.8z"/>
			<path id="XMLID_16_" fill="#404041" d="M113.3,213.6h58.3c2.6,0,4.7-2.1,4.7-4.7c0-2.6-2.1-4.7-4.7-4.7h-58.3
				c-2.6,0-4.7,2.1-4.7,4.7C108.6,211.5,110.7,213.6,113.3,213.6z"/>
		</g>
		<g id="XMLID_6_">
			<path id="XMLID_30_" fill="#404041" d="M464.8,283.3c2.6,0,4.7-2.1,4.7-4.7V161.2c0-2.6-2.1-4.7-4.7-4.7h-76.5
				c-2.6,0-4.7,2.1-4.7,4.7v117.4c0,2.6,2.1,4.7,4.7,4.7H464.8z M393,165.9h67v108h-67V165.9z"/>
			<path id="XMLID_176_" fill="#404041" d="M396.5,169.9V259h60v-89.1H396.5z M411.3,198h30.4c2.3,0,4.1,1.8,4.1,4.1
				c0,2.3-1.8,4.1-4.1,4.1h-30.4c-2.3,0-4.1-1.8-4.1-4.1C407.2,199.8,409.1,198,411.3,198z M441.7,230.8h-30.4
				c-2.3,0-4.1-1.8-4.1-4.1c0-2.3,1.8-4.1,4.1-4.1h30.4c2.3,0,4.1,1.8,4.1,4.1C445.8,229,444,230.8,441.7,230.8z M447.1,218.5h-41.2
				c-2.3,0-4.1-1.8-4.1-4.1c0-2.3,1.8-4.1,4.1-4.1h41.2c2.3,0,4.1,1.8,4.1,4.1C451.2,216.7,449.4,218.5,447.1,218.5z"/>
			<circle id="XMLID_22_" fill="#404041" cx="426.5" cy="267" r="3.1"/>
		</g>
		<g id="XMLID_48_">
			<path id="XMLID_185_" fill="#404041" d="M768.7,262.2c2.6,0,4.7-2.1,4.7-4.7v-98.1c0-2.6-2.1-4.7-4.7-4.7H630.1
				c-2.6,0-4.7,2.1-4.7,4.7v98.1c0,2.6,2.1,4.7,4.7,4.7h57.4v13.5h-11.3c-2.6,0-4.7,2.1-4.7,4.7c0,2.6,2.1,4.7,4.7,4.7h16h14.4h16
				c2.6,0,4.7-2.1,4.7-4.7c0-2.6-2.1-4.7-4.7-4.7h-11.3v-13.5H768.7z M701.9,275.7h-5v-13.5h5V275.7z M706.6,252.7h-14.4h-57.4
				v-88.7H764v88.7H706.6z"/>
			<path id="XMLID_187_" fill="#404041" d="M638.1,168.3v80.3h122.6v-80.3H638.1z M710.6,226.4h-60.8c-1.3,0-2.4-1.1-2.4-2.4
				c0-1.3,1.1-2.4,2.4-2.4h60.8c1.3,0,2.4,1.1,2.4,2.4C713,225.3,711.9,226.4,710.6,226.4z M749,216.7h-99.2c-1.3,0-2.4-1.1-2.4-2.4
				s1.1-2.4,2.4-2.4H749c1.3,0,2.4,1.1,2.4,2.4S750.3,216.7,749,216.7z M749,205.4h-99.2c-1.3,0-2.4-1.1-2.4-2.4s1.1-2.4,2.4-2.4
				H749c1.3,0,2.4,1.1,2.4,2.4S750.3,205.4,749,205.4z M749,193.7h-99.2c-1.3,0-2.4-1.1-2.4-2.4c0-1.3,1.1-2.4,2.4-2.4H749
				c1.3,0,2.4,1.1,2.4,2.4C751.4,192.7,750.3,193.7,749,193.7z"/>
		</g>
		<path id="XMLID_191_" fill="#404041" d="M905.5,254.8c0,0.2,0.1,0.3,0.1,0.5c0,0.1,0.1,0.3,0.1,0.4c0.1,0.1,0.1,0.3,0.2,0.4
			c0.1,0.1,0.1,0.3,0.2,0.4c0.1,0.1,0.2,0.2,0.3,0.3c0.1,0.1,0.2,0.3,0.3,0.4c0,0,0,0,0.1,0.1c0.1,0.1,0.2,0.1,0.3,0.2
			c0.1,0.1,0.2,0.2,0.4,0.3c0.1,0.1,0.3,0.2,0.4,0.2c0.1,0.1,0.2,0.1,0.4,0.2c0.2,0.1,0.3,0.1,0.5,0.2c0.1,0,0.2,0.1,0.3,0.1
			c0.3,0.1,0.6,0.1,0.9,0.1h0h0h122.5c0,0,0,0,0,0h0c0.3,0,0.6,0,0.9-0.1c0.1,0,0.2-0.1,0.3-0.1c0.2,0,0.4-0.1,0.5-0.2
			c0.1-0.1,0.2-0.1,0.4-0.2c0.1-0.1,0.3-0.1,0.4-0.2c0.1-0.1,0.2-0.2,0.4-0.3c0.1-0.1,0.2-0.1,0.3-0.2c0,0,0,0,0.1-0.1
			c0.1-0.1,0.2-0.3,0.3-0.4c0.1-0.1,0.2-0.2,0.3-0.3c0.1-0.1,0.2-0.3,0.2-0.4c0.1-0.1,0.2-0.3,0.2-0.4c0.1-0.1,0.1-0.3,0.1-0.4
			c0.1-0.2,0.1-0.3,0.1-0.5c0-0.1,0-0.3,0.1-0.4c0-0.2,0.1-0.4,0.1-0.5c0,0,0-0.1,0-0.1v-71.9c0-0.1,0-0.2,0-0.3
			c0-0.2,0-0.3-0.1-0.5c0-0.1-0.1-0.3-0.1-0.4c0-0.1-0.1-0.3-0.1-0.4c-0.1-0.2-0.1-0.3-0.2-0.5c0-0.1-0.1-0.2-0.1-0.3
			c0,0-0.1-0.1-0.1-0.1c-0.1-0.1-0.2-0.3-0.3-0.4c-0.1-0.1-0.2-0.2-0.3-0.3c-0.1-0.1-0.2-0.2-0.3-0.3c-0.1-0.1-0.2-0.2-0.4-0.3
			c-0.1-0.1-0.3-0.2-0.4-0.2c-0.1-0.1-0.3-0.2-0.4-0.2c-0.1-0.1-0.3-0.1-0.4-0.2c-0.1,0-0.3-0.1-0.4-0.1c-0.1,0-0.3,0-0.4-0.1
			c-0.2,0-0.3,0-0.5-0.1c0,0-0.1,0-0.1,0H910.1c0,0-0.1,0-0.1,0c-0.2,0-0.3,0-0.5,0.1c-0.1,0-0.3,0-0.4,0.1c-0.2,0-0.3,0.1-0.4,0.1
			c-0.1,0-0.3,0.1-0.4,0.2c-0.1,0.1-0.3,0.1-0.4,0.2c-0.1,0.1-0.3,0.1-0.4,0.2c-0.1,0.1-0.2,0.2-0.4,0.3c-0.1,0.1-0.2,0.2-0.3,0.3
			c-0.1,0.1-0.2,0.2-0.3,0.3c-0.1,0.1-0.2,0.3-0.3,0.4c0,0-0.1,0.1-0.1,0.1c0,0.1-0.1,0.2-0.1,0.3c-0.1,0.2-0.2,0.3-0.2,0.5
			c-0.1,0.1-0.1,0.3-0.1,0.4c0,0.1-0.1,0.3-0.1,0.4c0,0.2,0,0.3-0.1,0.5c0,0.1,0,0.2,0,0.3v71.9c0,0,0,0.1,0,0.1
			c0,0.2,0,0.4,0.1,0.5C905.5,254.5,905.5,254.7,905.5,254.8z M920.9,249.1l33.3-35.9l14.8,8.7c0.7,0.4,1.6,0.6,2.4,0.6
			c0.8,0,1.6-0.2,2.4-0.6l14.8-8.7l33.3,35.9H920.9z M1027.8,241.8l-31-33.5l31-18.2V241.8z M1015.2,186.6L987,203.2c0,0,0,0,0,0
			l-15.6,9.2l-15.6-9.2c0,0,0,0,0,0l-28.3-16.6H1015.2z M914.8,190.1l31,18.2l-31,33.5V190.1z"/>
		<g id="XMLID_52_">
			<path id="XMLID_23_" fill="#404041" d="M1249.3,265.2c0,4.7,3.8,8.5,8.5,8.5s8.5-3.8,8.5-8.5c0-35.5-28.9-64.4-64.4-64.4
				c-4.7,0-8.5,3.8-8.5,8.5c0,4.7,3.8,8.5,8.5,8.5C1228,217.8,1249.3,239.1,1249.3,265.2z"/>
			<path id="XMLID_31_" fill="#404041" d="M1290.1,265.2c0,4.7,3.8,8.5,8.5,8.5c4.7,0,8.5-3.8,8.5-8.5c0-58-47.2-105.2-105.2-105.2
				c-4.7,0-8.5,3.8-8.5,8.5s3.8,8.5,8.5,8.5C1250.5,177,1290.1,216.6,1290.1,265.2z"/>
			<circle id="XMLID_32_" fill="#404041" cx="1207.5" cy="255.4" r="15.8"/>
		</g>
		<g id="XMLID_85_">
			<path id="XMLID_195_" fill="#404041" d="M93.7,411.2c2,17.4,10.5,34.5,24,48c13.5,13.5,30.5,22,48,24c0.7,0.1,1.5,0.2,2.2,0.2
				c0.1,0,0.3,0,0.4,0c0.1,0,0.3,0,0.4,0c0,0,0.1,0,0.1,0c1.1,0.2,2.1,0.3,3.2,0.3c10.4,0,19.9-8.6,21.9-20.6
				c0.1-0.7,0.2-1.3,0.3-2.1c0.2-2.5-1.5-4.7-3.9-5.1l-32.7-5.5c-2.4-0.4-4.8,1.1-5.4,3.5c-0.2,0.7-0.3,1.4-0.4,2
				c-0.1,0.6-0.1,1.1-0.2,1.7c-6.7-3.5-12.8-8.1-18.4-13.7c-5.5-5.5-10.2-11.9-13.8-18.6c0.5-0.1,1-0.1,1.6-0.2
				c0.7-0.1,1.3-0.3,2-0.4c2.4-0.6,3.9-2.9,3.5-5.4l-5.5-32.7c-0.4-2.4-2.6-4.1-5.1-3.9c-0.7,0.1-1.4,0.2-2.1,0.3
				c-12.9,2.2-21.9,13-20.4,24.4C93.4,408.7,93.6,410,93.7,411.2z M183.9,464.5c-2.2,6.5-7.8,10.7-13.5,9.7c-3-0.5-5.6-2.4-7.4-5.4
				c-1.4-2.4-2.2-5.3-2.2-8.2L183.9,464.5z M126.5,450.6c7.7,7.7,16.5,13.8,26.2,18c0.2,0.8,0.5,1.5,0.8,2.2
				c-10.6-3.6-20.6-9.8-29.1-18.3c-8.5-8.5-14.8-18.5-18.3-29.1c0.8,0.3,1.5,0.6,2.3,0.9C112.6,433.9,118.8,443,126.5,450.6z
				 M112.5,393l3.9,23.1c-1.2,0-2.3-0.1-3.5-0.3c0,0-0.1,0-0.1,0c-1.7-0.4-3.2-1-4.6-1.8c-3-1.8-4.9-4.4-5.4-7.4
				c0-0.9-0.1-1.7-0.1-2.5C103.1,399.3,107,394.9,112.5,393z"/>
			<path id="XMLID_33_" fill="#404041" d="M148.5,404.6c13.2,0,23.9,10.7,23.9,23.9c0,2.6,2.1,4.7,4.7,4.7c2.6,0,4.7-2.1,4.7-4.7
				c0-18.4-14.9-33.3-33.3-33.3c-2.6,0-4.7,2.1-4.7,4.7C143.8,402.5,145.9,404.6,148.5,404.6z"/>
			<path id="XMLID_47_" fill="#404041" d="M148.5,383.7c24.7,0,44.7,20.1,44.7,44.7c0,2.6,2.1,4.7,4.7,4.7c2.6,0,4.7-2.1,4.7-4.7
				c0-29.9-24.3-54.2-54.2-54.2c-2.6,0-4.7,2.1-4.7,4.7C143.8,381.6,145.9,383.7,148.5,383.7z"/>
		</g>
		<g id="XMLID_60_">
			<path id="XMLID_61_" fill="#404041" d="M453.7,429.9c-3.9-15-17-26.2-32.8-27.5c-9.8-0.8-19.4,2.3-26.9,8.7
				c-6.9,5.9-11.3,13.9-12.6,22.8c-6.7,0.1-13.1,1.6-18.3,4.4c-7.1,3.8-11.2,9.4-11.8,15.9c-0.5,6.5,2.7,12.8,9,17.6
				c5.7,4.4,13.5,7.2,22,7.9c1.7,0.1,3.5,0.2,5.3,0.1c6.6,6.8,15.9,11,26.1,11.9c1.2,0.1,2.4,0.1,3.6,0.1c12.4,0,23.8-5.2,30.5-13.9
				c2.6,0.8,5.3,1.3,8,1.5c17.2,1.4,32-8.6,33.2-22.2c0.6-6.9-2.3-13.5-8.1-18.7c-5.4-4.9-12.9-7.9-21-8.6h0
				C457.8,429.7,455.7,429.7,453.7,429.9z M474.5,445.5c3.6,3.2,5.3,7.1,5,10.9c-0.7,8.3-11.2,14.5-23,13.6c-3.1-0.3-6.1-1-8.8-2.1
				c-2.2-0.9-4.7-0.1-5.9,2c-4.9,8.4-16,13.3-27.5,12.4c-8.6-0.7-16.3-4.5-21.3-10.3c-0.9-1.1-2.2-1.7-3.6-1.7c-0.1,0-0.2,0-0.4,0
				c-2,0.2-4.1,0.1-6.1,0c-6.5-0.5-12.7-2.7-17-6c-2.2-1.7-5.7-5.1-5.4-9.4c0.4-4.3,4.4-7.1,6.8-8.4c4.7-2.5,11.2-3.7,17.8-3.1
				c1.3,0.1,2.6-0.3,3.6-1.2c1-0.9,1.5-2.1,1.6-3.4c0-0.7,0-1.3,0.1-1.8c0.6-7.3,4-14,9.6-18.8c5.6-4.8,12.7-7.1,20.1-6.5
				c12.9,1.1,23.5,11.1,25.1,24c0.2,1.3,0.9,2.5,1.9,3.2c1.1,0.8,2.4,1.1,3.7,0.8c2.7-0.5,5.4-0.7,8.2-0.5h0
				C465.1,439.8,470.6,442,474.5,445.5z"/>
			<path id="XMLID_49_" fill="#404041" d="M476.8,427.8c0,2.6,2.1,4.7,4.7,4.7c2.6,0,4.7-2.1,4.7-4.7c0-18.4-14.9-33.3-33.3-33.3
				c-2.6,0-4.7,2.1-4.7,4.7c0,2.6,2.1,4.7,4.7,4.7C466.1,403.9,476.8,414.6,476.8,427.8z"/>
			<path id="XMLID_51_" fill="#404041" d="M497.7,427.8c0,2.6,2.1,4.7,4.7,4.7c2.6,0,4.7-2.1,4.7-4.7c0-29.9-24.3-54.2-54.2-54.2
				c-2.6,0-4.7,2.1-4.7,4.7c0,2.6,2.1,4.7,4.7,4.7C477.6,383,497.7,403.1,497.7,427.8z"/>
		</g>
		<g id="XMLID_74_">
			<path id="XMLID_70_" fill="#404041" d="M759.7,498.8c2.6,0,4.7-2.1,4.7-4.7v-71.9c0-0.1,0-0.2,0-0.3c0-0.2,0-0.3-0.1-0.5
				c0-0.2-0.1-0.3-0.1-0.4c0-0.1-0.1-0.3-0.1-0.4c-0.1-0.2-0.1-0.3-0.2-0.5c0-0.1-0.1-0.2-0.1-0.3c0,0-0.1-0.1-0.1-0.1
				c-0.1-0.1-0.2-0.3-0.3-0.4c-0.1-0.1-0.2-0.2-0.3-0.3c-0.1-0.1-0.2-0.2-0.3-0.3c-0.1-0.1-0.2-0.2-0.4-0.3
				c-0.1-0.1-0.3-0.2-0.4-0.2c-0.1-0.1-0.3-0.2-0.4-0.2c-0.1-0.1-0.3-0.1-0.4-0.2c-0.1,0-0.3-0.1-0.4-0.1c-0.1,0-0.3,0-0.4-0.1
				c-0.2,0-0.3,0-0.5-0.1c0,0-0.1,0-0.1,0H637.2c0,0-0.1,0-0.1,0c-0.2,0-0.3,0-0.5,0.1c-0.1,0-0.3,0-0.4,0.1c-0.2,0-0.3,0.1-0.4,0.1
				c-0.1,0-0.3,0.1-0.4,0.2c-0.1,0.1-0.3,0.1-0.4,0.2c-0.1,0.1-0.3,0.1-0.4,0.2c-0.1,0.1-0.2,0.2-0.4,0.3c-0.1,0.1-0.2,0.2-0.3,0.3
				c-0.1,0.1-0.2,0.2-0.3,0.3c-0.1,0.1-0.2,0.3-0.3,0.4c0,0-0.1,0.1-0.1,0.1c0,0.1-0.1,0.2-0.1,0.3c-0.1,0.2-0.2,0.3-0.2,0.5
				c-0.1,0.1-0.1,0.3-0.1,0.4c0,0.1-0.1,0.3-0.1,0.4c0,0.2,0,0.3-0.1,0.5c0,0.1,0,0.2,0,0.3v71.9c0,2.6,2.1,4.7,4.7,4.7H759.7z
				 M742.4,426.9l-43.9,25.8l-43.9-25.8H742.4z M641.9,430.4l54.1,31.8c0.7,0.4,1.6,0.6,2.4,0.6c0.8,0,1.6-0.2,2.4-0.6l54.1-31.8v59
				h-113V430.4z"/>
			<path id="XMLID_86_" fill="#404041" d="M712.1,355.1h-25.4c-2.6,0-4.7,2.1-4.7,4.7v20.2h-6c-1.9,0-3.6,1.2-4.4,2.9
				c-0.7,1.8-0.3,3.8,1.1,5.2l23.4,22.6c0.9,0.9,2.1,1.3,3.3,1.3c1.2,0,2.4-0.4,3.3-1.3l23.4-22.6c1.4-1.3,1.8-3.4,1.1-5.2
				c-0.7-1.8-2.4-2.9-4.4-2.9h-6v-20.2C716.8,357.2,714.7,355.1,712.1,355.1z M699.4,400.9l-11.9-11.5c2.2-0.4,3.9-2.3,3.9-4.6
				v-20.2h16v20.2c0,2.3,1.7,4.2,3.9,4.6L699.4,400.9z"/>
		</g>
		<path id="XMLID_198_" fill="#404041" d="M906,425.4v26.9c0,2.6,2.1,4.7,4.7,4.7H942v17.8c0,2.6,2.1,4.7,4.7,4.7H999
			c2.6,0,4.7-2.1,4.7-4.7V457h30.1c2.6,0,4.7-2.1,4.7-4.7v-26.9c0-7.9-4.8-14.6-11.6-17.6c2-3,3.2-6.7,3.2-10.7
			c0-10.2-7.7-18.5-17.3-18.5c-9.5,0-17.3,8.3-17.3,18.5c0,4.1,1.3,7.9,3.4,11c-4.6,2.2-8.1,6.1-9.8,11c-0.3-0.1-0.7-0.3-1-0.4
			c3-3.9,4.8-8.9,4.8-14.3c0-12.3-9.3-22.4-20.7-22.4c-11.4,0-20.7,10-20.7,22.4c0,5.6,1.9,10.7,5.1,14.7c-0.4,0.2-0.8,0.3-1.1,0.5
			c-1.6-5.2-5.3-9.2-10-11.5c2.1-3.1,3.4-6.9,3.4-11c0-10.2-7.7-18.5-17.3-18.5c-9.5,0-17.3,8.3-17.3,18.5c0,4,1.2,7.7,3.2,10.7
			C910.8,410.8,906,417.5,906,425.4z M1012.9,388c4.3,0,7.8,4.1,7.8,9.1s-3.5,9.1-7.8,9.1c-4.3,0-7.8-4.1-7.8-9.1
			S1008.6,388,1012.9,388z M997.8,423.1c1-4.4,4.9-7.5,9.5-7.5h12.1c5.4,0,9.7,4.4,9.7,9.7v22.2h-25.4v-6.7c0-6.3-2.5-12-6.5-16.2
			C997.4,424.2,997.7,423.7,997.8,423.1z M972.3,391.5c6.2,0,11.3,5.8,11.3,12.9s-5.1,12.9-11.3,12.9c-6.2,0-11.3-5.8-11.3-12.9
			S966,391.5,972.3,391.5z M951.4,440.9c0-7.8,6.3-14.1,14.1-14.1h14.7c7.8,0,14.1,6.3,14.1,14.1V470h-42.9V440.9z M931.6,388
			c4.3,0,7.8,4.1,7.8,9.1s-3.5,9.1-7.8,9.1c-4.3,0-7.8-4.1-7.8-9.1S927.3,388,931.6,388z M915.4,425.4c0-5.4,4.4-9.7,9.7-9.7h12.1
			c4.6,0,8.5,3.1,9.5,7.5c0.2,0.7,0.2,1.5,0.2,2.2c0,0.3,0,0.6,0.1,0.9c-3.2,4-5.1,9.1-5.1,14.6v6.7h-26.6V425.4z"/>
		<g id="XMLID_58_">
			<path id="XMLID_109_" fill="#404041" d="M1202.2,443.4h-6.1c-1.8,0-3.3,1.5-3.3,3.3v10c0,1.8,1.5,3.3,3.3,3.3h6.1v12.2
				c0,7.2,5.9,13.1,13.1,13.1h70.5c7.2,0,13.1-5.9,13.1-13.1v-86.3c0-7.2-5.9-13.1-13.1-13.1h-70.5c-7.2,0-13.1,5.9-13.1,13.1v12.2
				h-6.1c-1.8,0-3.3,1.5-3.3,3.3v10c0,1.8,1.5,3.3,3.3,3.3h6.1v5.6h-6.1c-1.8,0-3.3,1.5-3.3,3.3v10c0,1.8,1.5,3.3,3.3,3.3h6.2
				c0,0.2-0.1,0.4-0.1,0.7V443.4z M1211.6,385.9c0-2,1.7-3.7,3.7-3.7h70.5c2,0,3.7,1.7,3.7,3.7v86.3c0,2-1.7,3.7-3.7,3.7h-70.5
				c-2,0-3.7-1.7-3.7-3.7V460h5.4c1.8,0,3.3-1.5,3.3-3.3v-10c0-1.8-1.5-3.3-3.3-3.3h-5.4v-5.9c0-0.2,0-0.5-0.1-0.7h5.5
				c1.8,0,3.3-1.5,3.3-3.3v-10c0-1.8-1.5-3.3-3.3-3.3h-5.4v-5.6h5.4c1.8,0,3.3-1.5,3.3-3.3v-10c0-1.8-1.5-3.3-3.3-3.3h-5.4V385.9z
				 M1199.3,408.1v-3.4h14.4v3.4H1199.3z M1199.3,430.3v-3.4h14.4v3.4H1199.3z M1213.7,450v3.4h-14.4V450H1213.7z"/>
			<path id="XMLID_104_" fill="#404041" d="M1229.8,439.7V456c0,2.6,2.1,4.7,4.7,4.7h32.1c2.6,0,4.7-2.1,4.7-4.7v-16.3
				c0-7.3-3.8-13.8-9.6-17.5c1.9-2.6,3-5.9,3-9.4c0-8.6-6.5-15.5-14.5-15.5s-14.5,7-14.5,15.5c0,3.7,1.2,7.1,3.2,9.7
				C1233.4,426.3,1229.8,432.6,1229.8,439.7z M1250.2,406.7c2.8,0,5.1,2.7,5.1,6.1c0,3.4-2.3,6.1-5.1,6.1s-5.1-2.7-5.1-6.1
				C1245.1,409.5,1247.4,406.7,1250.2,406.7z M1239.2,439.7c0-6.3,5.1-11.3,11.3-11.3c6.3,0,11.3,5.1,11.3,11.3v11.6h-22.7V439.7z"
				/>
		</g>
		<g id="XMLID_87_">
			<path id="XMLID_80_" fill="#404041" d="M92.5,707.2h122.4c2.6,0,4.7-2.1,4.7-4.7v-90.4c0-2.6-2.1-4.7-4.7-4.7h-50.5l27.9-30.4
				c1.8-1.9,1.6-4.9-0.3-6.7c-1.9-1.8-4.9-1.6-6.7,0.3l-31.6,34.5l-31.6-34.5c-1.8-1.9-4.7-2.1-6.7-0.3c-1.9,1.8-2,4.7-0.3,6.7
				l27.9,30.4H92.5c-2.6,0-4.7,2.1-4.7,4.7v90.4C87.8,705.1,89.9,707.2,92.5,707.2z M97.2,616.8h112.9v81H97.2V616.8z"/>
			<rect id="XMLID_56_" x="102.5" y="620.7" fill="#404041" width="102.4" height="60.3"/>
			<ellipse id="XMLID_57_" fill="#404041" cx="199" cy="689" rx="4.7" ry="5.2"/>
			<ellipse id="XMLID_59_" fill="#404041" cx="186.6" cy="689" rx="2.5" ry="2.7"/>
			<ellipse id="XMLID_68_" fill="#404041" cx="178.4" cy="689" rx="2.5" ry="2.7"/>
			<ellipse id="XMLID_73_" fill="#404041" cx="170" cy="689" rx="2.5" ry="2.7"/>
		</g>
		<g id="XMLID_89_">
			<path id="XMLID_107_" fill="#404041" d="M375.3,667.6c0.1,0.2,0.1,0.5,0.2,0.7c0,0.1,0.1,0.2,0.1,0.3c0.1,0.2,0.2,0.3,0.3,0.5
				c0,0.1,0.1,0.1,0.1,0.2c0.2,0.2,0.3,0.4,0.5,0.6c0,0,0,0,0,0l33.7,33.7c0.2,0.2,0.5,0.4,0.7,0.6c0.1,0.1,0.2,0.1,0.3,0.2
				c0.2,0.1,0.3,0.2,0.5,0.3c0.1,0.1,0.3,0.1,0.4,0.1c0.2,0.1,0.3,0.1,0.5,0.2c0.3,0.1,0.6,0.1,0.9,0.1c0,0,0,0,0,0h59.6
				c2.6,0,4.7-2.1,4.7-4.7V576.1c0-2.6-2.1-4.7-4.7-4.7h-93.3c-2.6,0-4.7,2.1-4.7,4.7v90.4c0,0,0,0.1,0,0.1c0,0.3,0,0.6,0.1,0.8
				C375.3,667.5,375.3,667.5,375.3,667.6z M408.9,688.8l-17.6-17.6h17.6V688.8z M384.6,580.8h83.8v114.7h-50.2v-29
				c0-2.6-2.1-4.7-4.7-4.7h-29V580.8z"/>
			<path id="XMLID_84_" fill="#404041" d="M453.7,599.9c2.6,0,4.7-2.1,4.7-4.7s-2.1-4.7-4.7-4.7h-54.3c-2.6,0-4.7,2.1-4.7,4.7
				s2.1,4.7,4.7,4.7H453.7z"/>
			<path id="XMLID_88_" fill="#404041" d="M453.7,615.4c2.6,0,4.7-2.1,4.7-4.7s-2.1-4.7-4.7-4.7h-54.3c-2.6,0-4.7,2.1-4.7,4.7
				s2.1,4.7,4.7,4.7H453.7z"/>
			<path id="XMLID_91_" fill="#404041" d="M453.7,630c2.6,0,4.7-2.1,4.7-4.7s-2.1-4.7-4.7-4.7h-54.3c-2.6,0-4.7,2.1-4.7,4.7
				s2.1,4.7,4.7,4.7H453.7z"/>
			<path id="XMLID_100_" fill="#404041" d="M453.7,644.2c2.6,0,4.7-2.1,4.7-4.7s-2.1-4.7-4.7-4.7h-54.3c-2.6,0-4.7,2.1-4.7,4.7
				s2.1,4.7,4.7,4.7H453.7z"/>
		</g>
		<path id="XMLID_119_" fill="#404041" d="M661.7,612.2c-18.1,0-32.8,14.7-32.8,32.8c0,18.1,14.7,32.8,32.8,32.8
			c7.5,0,14.4-2.5,20-6.8l29.3,25.3c-0.4,1.5-0.6,3.1-0.6,4.7c0,10.6,8.6,19.2,19.2,19.2c10.6,0,19.2-8.6,19.2-19.2
			s-8.6-19.2-19.2-19.2c-5.5,0-10.4,2.3-13.9,6l-27.3-23.6c3.9-5.4,6.3-12.1,6.3-19.3c0-7.2-2.3-13.8-6.3-19.3l27.3-23.6
			c3.5,3.7,8.4,6,13.9,6c10.6,0,19.2-8.6,19.2-19.2c0-10.6-8.6-19.2-19.2-19.2c-10.6,0-19.2,8.6-19.2,19.2c0,1.6,0.2,3.2,0.6,4.7
			L681.6,619C676.1,614.7,669.2,612.2,661.7,612.2z M729.4,691.3c5.4,0,9.7,4.4,9.7,9.7c0,5.4-4.4,9.7-9.7,9.7
			c-5.4,0-9.7-4.4-9.7-9.7C719.7,695.6,724.1,691.3,729.4,691.3z M729.4,579.2c5.4,0,9.7,4.4,9.7,9.7c0,5.4-4.4,9.7-9.7,9.7
			c-5.4,0-9.7-4.4-9.7-9.7C719.7,583.6,724.1,579.2,729.4,579.2z M661.7,668.4c-12.9,0-23.4-10.5-23.4-23.4s10.5-23.4,23.4-23.4
			s23.4,10.5,23.4,23.4S674.6,668.4,661.7,668.4z"/>
		<g id="XMLID_92_">
			<path id="XMLID_131_" fill="#404041" d="M904.1,615.6V635v13.4V697c0,2.6,2.1,4.7,4.7,4.7h129.2c2.6,0,4.7-2.1,4.7-4.7v-48.6V635
				v-19.4c0-2.6-2.1-4.7-4.7-4.7h-12.5L939,575c-2.4-1-5.2,0.1-6.2,2.5c-1,2.4,0.1,5.2,2.5,6.2l65.5,27.3h-92.2
				C906.2,610.9,904.1,613,904.1,615.6z M1033.2,643.7h-87v-4h87V643.7z M913.5,620.3h119.7v10H913.5V620.3z M913.5,639.7h23.3v4
				h-23.3V639.7z M913.5,653.1h119.7v39.2H913.5V653.1z"/>
			<circle id="XMLID_103_" fill="#404041" cx="1004.9" cy="672.5" r="12.5"/>
		</g>
		<path id="XMLID_129_" fill="#404041" d="M1254.9,569.4c-29.1,0-52.8,23.7-52.8,52.8v5.8c-6.4,1.8-11.1,7.6-11.1,14.6v19.9
			c0,7,4.8,13,11.4,14.7c2,13.6,13.4,24.1,27.4,24.7c1.3,1.3,3,2.2,5,2.2c3.8,0,6.9-3.1,6.9-6.9c0-3.8-3.1-6.9-6.9-6.9
			c-1.9,0-3.7,0.8-4.9,2.1c-9-0.5-16.4-7.1-18-15.8c5.6-2.2,9.5-7.7,9.5-14.1v-19.9c0-6.5-4.1-12-9.9-14.2v-6.2
			c0-23.9,19.4-43.3,43.3-43.3c23.9,0,43.3,19.4,43.3,43.3v6.2c-5.7,2.2-9.9,7.7-9.9,14.2v19.9c0,8.4,6.8,15.2,15.2,15.2
			c8.4,0,15.2-6.8,15.2-15.2v-19.9c0-6.9-4.7-12.8-11.1-14.6v-5.8C1307.6,593.1,1284,569.4,1254.9,569.4z M1212,642.5v19.9
			c0,3.2-2.6,5.7-5.7,5.7s-5.7-2.6-5.7-5.7v-19.9c0-3.2,2.6-5.7,5.7-5.7S1212,639.4,1212,642.5z M1309.3,642.5v19.9
			c0,3.2-2.6,5.7-5.7,5.7c-3.2,0-5.7-2.6-5.7-5.7v-19.9c0-3.2,2.6-5.7,5.7-5.7C1306.7,636.8,1309.3,639.4,1309.3,642.5z"/>
		<g id="XMLID_4_">
			<path id="XMLID_93_" fill="#404041" d="M940.8,816.6c-2.6,0-4.7,2.1-4.7,4.7v26.5c0,18.4,13.7,33.6,31.5,35.9v19.1H952
				c-2.6,0-4.7,2.1-4.7,4.7s2.1,4.7,4.7,4.7h40.5c2.6,0,4.7-2.1,4.7-4.7s-2.1-4.7-4.7-4.7H977v-19.1c17.7-2.3,31.5-17.5,31.5-35.9
				v-26.5c0-2.6-2.1-4.7-4.7-4.7s-4.7,2.1-4.7,4.7v26.5c0,14.8-12,26.8-26.8,26.8s-26.8-12-26.8-26.8v-26.5
				C945.5,818.7,943.4,816.6,940.8,816.6z"/>
			<path id="XMLID_127_" fill="#404041" d="M972.3,782.5c-13.4,0-24.3,10.9-24.3,24.3v41.3c0,13.4,10.9,24.3,24.3,24.3
				s24.3-10.9,24.3-24.3v-18.3c0.4-0.7,0.6-1.5,0.6-2.3s-0.2-1.6-0.6-2.3v-18.3C996.6,793.4,985.7,782.5,972.3,782.5z M987.2,848.1
				c0,8.2-6.7,14.9-14.9,14.9c-8.2,0-14.9-6.7-14.9-14.9v-15.9h29.8V848.1z M987.2,822.8h-29.8v-15.9c0-8.2,6.7-14.9,14.9-14.9
				c8.2,0,14.9,6.7,14.9,14.9V822.8z"/>
		</g>
		<g id="XMLID_5_">
			<path id="XMLID_95_" fill="#404041" d="M1255.4,834.8c0.8,0.6,1.8,0.9,2.7,0.9c1.5,0,2.9-0.7,3.8-2c2.5-3.5,3.9-7.7,3.9-12.1
				c0-11.4-9.3-20.7-20.7-20.7c-11.4,0-20.7,9.3-20.7,20.7c0,4.4,1.3,8.5,3.9,12.1c1.5,2.1,4.5,2.6,6.6,1.1c2.1-1.5,2.6-4.5,1.1-6.6
				c-1.4-1.9-2.1-4.2-2.1-6.6c0-6.2,5.1-11.3,11.3-11.3c6.2,0,11.3,5.1,11.3,11.3c0,2.4-0.7,4.7-2.1,6.6
				C1252.8,830.3,1253.2,833.2,1255.4,834.8z"/>
			<path id="XMLID_144_" fill="#404041" d="M1219.8,919.9l4.1-11.2h42.4l4.1,11.2c0.7,1.9,2.5,3.1,4.4,3.1c0.5,0,1.1-0.1,1.6-0.3
				c2.4-0.9,3.7-3.6,2.8-6l-29.8-80.7c-0.7-1.9-2.4-3.1-4.4-3.1c-2,0-3.7,1.2-4.4,3.1l-29.8,80.7c-0.9,2.4,0.3,5.1,2.8,6
				C1216.2,923.6,1218.9,922.4,1219.8,919.9z M1245.1,851.2l7.3,19.8h-14.6L1245.1,851.2z M1235.7,876.7h18.8l3.8,10.4h-26.4
				L1235.7,876.7z M1229.8,892.7h30.6l3.8,10.4H1226L1229.8,892.7z"/>
			<path id="XMLID_39_" fill="#404041" d="M1260.5,841.4c-2.1,1.6-2.4,4.6-0.8,6.6c0.9,1.2,2.3,1.8,3.7,1.8c1,0,2-0.3,2.9-1
				c8.5-6.6,13.4-16.5,13.4-27.2c0-19-15.5-34.5-34.5-34.5s-34.5,15.5-34.5,34.5c0,10.7,4.9,20.7,13.3,27.2c2.1,1.6,5,1.2,6.6-0.8
				c1.6-2.1,1.2-5-0.8-6.6c-6.2-4.8-9.7-12-9.7-19.8c0-13.8,11.2-25,25-25c13.8,0,25,11.2,25,25
				C1270.2,829.4,1266.6,836.6,1260.5,841.4z"/>
			<path id="XMLID_34_" fill="#404041" d="M1266.4,856.1c-2.2,1.4-2.9,4.3-1.5,6.5c0.9,1.4,2.4,2.2,4,2.2c0.8,0,1.7-0.2,2.5-0.7
				c14.9-9.2,23.7-25.1,23.7-42.5c0-27.5-22.4-49.9-49.9-49.9c-27.5,0-49.9,22.4-49.9,49.9c0,17.4,8.9,33.3,23.7,42.5
				c2.2,1.4,5.1,0.7,6.5-1.5c1.4-2.2,0.7-5.1-1.5-6.5c-12.1-7.5-19.3-20.3-19.3-34.5c0-22.3,18.2-40.5,40.5-40.5
				c22.3,0,40.5,18.2,40.5,40.5C1285.7,835.8,1278.5,848.7,1266.4,856.1z"/>
		</g>
		<g id="XMLID_7_">
			<path id="XMLID_43_" fill="#404041" d="M90.3,901.8h9c-4.6-3.3-9.2-6.6-13.8-10v5.3C85.6,899.7,87.7,901.8,90.3,901.8z"/>
			<path id="XMLID_115_" fill="#404041" d="M217,901.8c2.6,0,4.7-2.1,4.7-4.7v-29.9c0,0,0,0,0-0.1c0-0.3,0-0.6-0.1-0.8
				c0-0.1,0-0.1,0-0.2c0-0.2-0.1-0.4-0.2-0.6c0-0.1-0.1-0.1-0.1-0.2c-0.1-0.2-0.2-0.5-0.4-0.7l0,0c0,0,0,0,0,0L204,838.9
				c-0.9-1.3-2.3-2.1-3.9-2.1h-18c-2.6,0-4.7,2.1-4.7,4.7s2.1,4.7,4.7,4.7h15.4l10.7,16.3H99.1l10.7-16.3h15.4
				c2.6,0,4.7-2.1,4.7-4.7s-2.1-4.7-4.7-4.7h-18c-1.6,0-3.1,0.8-3.9,2.1l-16.9,25.6c0,0,0,0,0,0l0,0c-0.1,0.2-0.3,0.4-0.4,0.7
				c0,0.1-0.1,0.1-0.1,0.2c-0.1,0.2-0.1,0.4-0.2,0.6c0,0.1,0,0.1,0,0.2c-0.1,0.3-0.1,0.5-0.1,0.8c0,0,0,0,0,0.1v24.6
				c4.6,3.4,9.1,6.7,13.8,10H217z M95.1,871.9h117.2v20.5H95.1V871.9z"/>
			<path id="XMLID_136_" fill="#404041" d="M150.4,844.9c0.9,0.9,2.1,1.3,3.3,1.3s2.4-0.4,3.3-1.3l21.7-20.9
				c1.4-1.3,1.8-3.4,1.1-5.2c-0.7-1.8-2.4-2.9-4.4-2.9h-5.2v-18.3c0-2.6-2.1-4.7-4.7-4.7h-23.5c-2.6,0-4.7,2.1-4.7,4.7v18.3H132
				c-1.9,0-3.6,1.2-4.4,2.9c-0.7,1.8-0.3,3.8,1.1,5.2L150.4,844.9z M146.6,820.6v-18.3h14.1v18.3c0,2.1,1.4,3.8,3.2,4.5l-10.3,9.9
				l-10.3-9.9C145.3,824.5,146.6,822.7,146.6,820.6z"/>
		</g>
		<g id="XMLID_8_">
			<path id="XMLID_102_" fill="#404041" d="M398.1,846.2c2.6,0,4.7-2.1,4.7-4.7s-2.1-4.7-4.7-4.7h-18c-1.6,0-3.1,0.8-3.9,2.1
				l-16.9,25.6c0,0,0,0,0,0l0,0c-0.1,0.2-0.3,0.4-0.4,0.7c0,0.1-0.1,0.1-0.1,0.2c-0.1,0.2-0.1,0.4-0.2,0.6c0,0.1,0,0.1,0,0.2
				c-0.1,0.3-0.1,0.5-0.1,0.8c0,0,0,0,0,0.1v29.9c0,2.6,2.1,4.7,4.7,4.7h126.7c2.6,0,4.7-2.1,4.7-4.7v-29.9c0,0,0,0,0-0.1
				c0-0.3,0-0.6-0.1-0.8c0-0.1,0-0.1,0-0.2c0-0.2-0.1-0.4-0.2-0.6c0-0.1-0.1-0.1-0.1-0.2c-0.1-0.2-0.2-0.5-0.4-0.7l0,0c0,0,0,0,0,0
				l-16.9-25.6c-0.9-1.3-2.3-2.1-3.9-2.1h-18c-2.6,0-4.7,2.1-4.7,4.7s2.1,4.7,4.7,4.7h15.4l10.7,16.3H372l10.7-16.3H398.1z
				 M485.2,871.9v20.5H367.9v-20.5H485.2z"/>
			<path id="XMLID_44_" fill="#404041" d="M414.8,846.2h23.5c2.6,0,4.7-2.1,4.7-4.7v-18.3h5.2c1.9,0,3.6-1.2,4.4-2.9
				c0.7-1.8,0.3-3.8-1.1-5.2l-21.7-20.9c-1.8-1.8-4.7-1.8-6.5,0l-21.7,20.9c-1.4,1.3-1.8,3.4-1.1,5.2c0.7,1.8,2.4,2.9,4.4,2.9h5.2
				v18.3C410.1,844.1,412.2,846.2,414.8,846.2z M426.5,804.1l10.3,9.9c-1.9,0.6-3.2,2.4-3.2,4.5v18.3h-14.1v-18.3
				c0-2.1-1.4-3.8-3.2-4.5L426.5,804.1z"/>
		</g>
		<g id="XMLID_35_">
			<path id="XMLID_26_" fill="#404041" d="M772.5,830.1c2.6,0,4.7-2.1,4.7-4.7v-45.6c0-2.6-2.1-4.7-4.7-4.7h-64.4
				c-2.6,0-4.7,2.1-4.7,4.7v45.6c0,2.6,2.1,4.7,4.7,4.7h24.1v1.2h-2.7c-2.6,0-4.7,2.1-4.7,4.7s2.1,4.7,4.7,4.7h7.4h6.7h7.4
				c2.6,0,4.7-2.1,4.7-4.7s-2.1-4.7-4.7-4.7h-2.7v-1.2H772.5z M743.7,820.7H737h-24.1v-36.1h55v36.1H743.7z"/>
			<path id="XMLID_21_" fill="#404041" d="M690.6,908.9c2.6,0,4.7-2.1,4.7-4.7v-45.6c0-2.6-2.1-4.7-4.7-4.7h-64.4
				c-2.6,0-4.7,2.1-4.7,4.7v45.6c0,2.6,2.1,4.7,4.7,4.7h24.1v1.2h-2.7c-2.6,0-4.7,2.1-4.7,4.7s2.1,4.7,4.7,4.7h7.4h6.7h7.4
				c2.6,0,4.7-2.1,4.7-4.7s-2.1-4.7-4.7-4.7h-2.7v-1.2H690.6z M661.8,899.5h-6.7H631v-36.1h55v36.1H661.8z"/>
			<path id="XMLID_15_" fill="#404041" d="M717.4,892.4c1.8,0,3.3-1.5,3.3-3.3s-1.5-3.3-3.3-3.3h-2.8c-1.8,0-3.3,1.5-3.3,3.3
				s1.5,3.3,3.3,3.3H717.4z"/>
			<path id="XMLID_12_" fill="#404041" d="M705.2,892.4c1.8,0,3.3-1.5,3.3-3.3s-1.5-3.3-3.3-3.3h-2.8c-1.8,0-3.3,1.5-3.3,3.3
				s1.5,3.3,3.3,3.3H705.2z"/>
			<path id="XMLID_13_" fill="#404041" d="M743.6,853.6v-2.8c0-1.8-1.5-3.3-3.3-3.3s-3.3,1.5-3.3,3.3v2.8c0,1.8,1.5,3.3,3.3,3.3
				S743.6,855.4,743.6,853.6z"/>
			<path id="XMLID_17_" fill="#404041" d="M729.7,892.4c1.8,0,3.3-1.5,3.3-3.3s-1.5-3.3-3.3-3.3h-2.8c-1.8,0-3.3,1.5-3.3,3.3
				s1.5,3.3,3.3,3.3H729.7z"/>
			<path id="XMLID_36_" fill="#404041" d="M743.6,865.9V863c0-1.8-1.5-3.3-3.3-3.3s-3.3,1.5-3.3,3.3v2.8c0,1.8,1.5,3.3,3.3,3.3
				S743.6,867.7,743.6,865.9z"/>
			<path id="XMLID_37_" fill="#404041" d="M743.6,878.1v-2.8c0-1.8-1.5-3.3-3.3-3.3s-3.3,1.5-3.3,3.3v2.8c0,1.8,1.5,3.3,3.3,3.3
				S743.6,879.9,743.6,878.1z"/>
			<path id="XMLID_38_" fill="#404041" d="M740.3,892.4c1.8,0,3.3-1.5,3.3-3.3v-1.6c0-1.8-1.5-3.3-3.3-3.3c-1.4,0-2.6,0.9-3.1,2.2
				c-0.9,0.6-1.4,1.6-1.4,2.7c0,1.8,1.5,3.3,3.3,3.3H740.3z"/>
		</g>
	</g>
	<g id="XMLID_155_">
		<path id="XMLID_40_" fill="#231F20" d="M347.3,66.7V64c0-4.4-2.2-7-6.5-7c-4.3,0-6.5,2.5-6.5,7v14.4c0,4.4,2.2,7,6.5,7
			c4.3,0,6.5-2.5,6.5-7v-3.7h-4.1v4c0,2-0.9,2.7-2.3,2.7c-1.4,0-2.3-0.7-2.3-2.7v-15c0-2,0.9-2.7,2.3-2.7c1.4,0,2.3,0.8,2.3,2.7v3
			H347.3z"/>
		<path id="XMLID_139_" fill="#231F20" d="M388.2,78.4V64c0-4.4-2.3-7-6.6-7c-4.3,0-6.6,2.5-6.6,7v14.4c0,4.4,2.3,7,6.6,7
			C385.9,85.4,388.2,82.9,388.2,78.4z M379.4,78.7v-15c0-2,0.9-2.7,2.3-2.7c1.4,0,2.3,0.8,2.3,2.7v15c0,2-0.9,2.7-2.3,2.7
			C380.2,81.4,379.4,80.7,379.4,78.7z"/>
		<polygon id="XMLID_41_" fill="#231F20" points="434.7,85.1 434.7,57.3 428.7,57.3 425.7,77 422.5,57.3 416.4,57.3 416.4,85.1 
			420.2,85.1 420.2,65.4 423.5,85.1 427.6,85.1 430.6,65.2 430.6,85.1 		"/>
		<polygon id="XMLID_42_" fill="#231F20" points="481.6,85.1 481.6,57.3 475.5,57.3 472.5,77 469.3,57.3 463.3,57.3 463.3,85.1 
			467.1,85.1 467.1,65.4 470.3,85.1 474.5,85.1 477.5,65.2 477.5,85.1 		"/>
		<path id="XMLID_140_" fill="#231F20" d="M510,57.3v21.1c0,4.4,2.2,7,6.5,7c4.3,0,6.5-2.5,6.5-7V57.3h-4.1v21.4
			c0,2-0.9,2.7-2.3,2.7c-1.4,0-2.3-0.7-2.3-2.7V57.3H510z"/>
		<polygon id="XMLID_147_" fill="#231F20" points="560.7,85.1 565.2,85.1 565.2,57.3 561.3,57.3 561.3,73.9 556.8,57.3 551.3,57.3 
			551.3,85.1 555.2,85.1 555.2,65 		"/>
		<rect id="XMLID_148_" x="593.7" y="57.3" fill="#231F20" width="4.4" height="27.8"/>
		<path id="XMLID_149_" fill="#231F20" d="M639.3,66.7V64c0-4.4-2.2-7-6.5-7c-4.3,0-6.5,2.5-6.5,7v14.4c0,4.4,2.2,7,6.5,7
			c4.3,0,6.5-2.5,6.5-7v-3.7h-4.1v4c0,2-0.9,2.7-2.3,2.7c-1.4,0-2.3-0.7-2.3-2.7v-15c0-2,0.9-2.7,2.3-2.7c1.4,0,2.3,0.8,2.3,2.7v3
			H639.3z"/>
		<path id="XMLID_154_" fill="#231F20" d="M676.3,80l0.8,5h4.4L677,57.3h-6.4l-4.4,27.8h4l0.8-5H676.3z M673.6,62.2l2.1,14h-4.2
			L673.6,62.2z"/>
		<polygon id="XMLID_150_" fill="#231F20" points="716.5,85.1 716.5,61.3 721.1,61.3 721.1,57.3 707.6,57.3 707.6,61.3 712.2,61.3 
			712.2,85.1 		"/>
		<rect id="XMLID_151_" x="748.4" y="57.3" fill="#231F20" width="4.4" height="27.8"/>
		<path id="XMLID_160_" fill="#231F20" d="M794.2,78.4V64c0-4.4-2.3-7-6.6-7c-4.3,0-6.6,2.5-6.6,7v14.4c0,4.4,2.3,7,6.6,7
			C791.9,85.4,794.2,82.9,794.2,78.4z M785.3,78.7v-15c0-2,0.9-2.7,2.3-2.7c1.4,0,2.3,0.8,2.3,2.7v15c0,2-0.9,2.7-2.3,2.7
			C786.2,81.4,785.3,80.7,785.3,78.7z"/>
		<polygon id="XMLID_156_" fill="#231F20" points="831.7,85.1 836.2,85.1 836.2,57.3 832.3,57.3 832.3,73.9 827.9,57.3 822.4,57.3 
			822.4,85.1 826.3,85.1 826.3,65 		"/>
		<rect id="XMLID_157_" x="896.3" y="57.3" fill="#231F20" width="4.4" height="27.8"/>
		<path id="XMLID_161_" fill="#231F20" d="M941.9,66.7V64c0-4.4-2.2-7-6.5-7c-4.3,0-6.5,2.5-6.5,7v14.4c0,4.4,2.2,7,6.5,7
			c4.3,0,6.5-2.5,6.5-7v-3.7h-4.1v4c0,2-0.9,2.7-2.3,2.7c-1.4,0-2.3-0.7-2.3-2.7v-15c0-2,0.9-2.7,2.3-2.7c1.4,0,2.3,0.8,2.3,2.7v3
			H941.9z"/>
		<path id="XMLID_166_" fill="#231F20" d="M982.8,78.4V64c0-4.4-2.3-7-6.6-7c-4.3,0-6.6,2.5-6.6,7v14.4c0,4.4,2.3,7,6.6,7
			C980.5,85.4,982.8,82.9,982.8,78.4z M974,78.7v-15c0-2,0.9-2.7,2.3-2.7c1.4,0,2.3,0.8,2.3,2.7v15c0,2-0.9,2.7-2.3,2.7
			C974.8,81.4,974,80.7,974,78.7z"/>
		<polygon id="XMLID_162_" fill="#231F20" points="1020.4,85.1 1024.9,85.1 1024.9,57.3 1021,57.3 1021,73.9 1016.5,57.3 1011,57.3 
			1011,85.1 1014.9,85.1 1014.9,65 		"/>
		<path id="XMLID_163_" fill="#231F20" d="M1052.7,76.7v1.7c0,4.4,2.2,7,6.5,7c4.3,0,6.5-2.5,6.5-7c0-7.9-8.5-9-8.5-14.7
			c0-2,0.8-2.7,2.2-2.7s2.2,0.8,2.2,2.7v1.1h4.1V64c0-4.4-2.2-7-6.4-7s-6.4,2.5-6.4,7c0,7.9,8.5,9,8.5,14.7c0,2-0.9,2.7-2.3,2.7
			c-1.4,0-2.3-0.7-2.3-2.7v-2H1052.7z"/>
	</g>
</g>
</svg>
